<?xml version="1.0" standalone="no"?>
<!DOCTYPE svg PUBLIC "-//W3C//DTD SVG 20010904//EN"
 "http://www.w3.org/TR/2001/REC-SVG-20010904/DTD/svg10.dtd">
<svg version="1.0" xmlns="http://www.w3.org/2000/svg"
 width="500.000000pt" height="500.000000pt" viewBox="0 0 500.000000 500.000000"
 preserveAspectRatio="xMidYMid meet">

<g transform="translate(0.000000,500.000000) scale(0.100000,-0.100000)"
fill="#000000" stroke="none">
<path d="M2495 3861 c-55 -21 -199 -79 -320 -128 -121 -50 -265 -109 -320
-131 -208 -83 -439 -177 -712 -289 -313 -129 -339 -145 -389 -252 -49 -103
-43 -281 12 -363 l24 -38 -24 -37 c-34 -53 -49 -114 -49 -208 0 -93 15 -157
49 -202 l24 -31 -30 -59 c-39 -77 -54 -177 -40 -267 26 -161 83 -210 340 -285
52 -16 208 -65 345 -109 138 -44 277 -88 310 -97 33 -9 202 -61 375 -115 173
-54 356 -110 407 -124 l92 -26 88 43 c48 23 180 90 293 149 113 58 338 173
500 256 681 345 776 395 798 415 25 23 30 90 9 118 -16 21 -51 39 -76 39 -11
0 -94 -38 -183 -84 -90 -46 -273 -140 -408 -209 -135 -68 -339 -173 -455 -232
-115 -59 -293 -150 -395 -202 l-185 -94 -145 41 c-80 23 -271 81 -425 129
-154 49 -300 94 -325 100 -25 7 -175 54 -335 106 -159 51 -316 100 -348 109
-45 13 -62 24 -77 49 -24 39 -26 115 -4 179 28 84 27 84 219 23 370 -117 1132
-353 1369 -423 l88 -26 52 27 c28 16 188 98 356 184 168 85 413 210 545 278
132 68 348 178 479 244 132 67 245 130 253 139 19 25 16 93 -6 121 -31 40 -91
34 -192 -21 -46 -25 -187 -99 -314 -163 -263 -135 -569 -291 -900 -460 -126
-64 -244 -125 -260 -136 l-31 -18 -284 90 c-157 49 -303 94 -325 100 -39 10
-138 41 -505 156 -509 159 -519 163 -537 189 -24 38 -28 122 -9 182 31 92 19
92 296 3 135 -44 308 -98 385 -121 77 -22 209 -63 292 -90 84 -27 206 -65 270
-84 65 -19 184 -55 266 -80 81 -25 153 -46 160 -46 12 0 168 78 607 302 461
236 785 401 928 474 79 40 150 81 158 91 36 48 3 134 -57 148 -28 7 -37 2
-1161 -573 l-487 -249 -193 59 c-243 75 -579 179 -723 225 -60 19 -128 39
-150 44 -22 6 -158 48 -303 96 -223 72 -265 89 -280 111 -24 36 -22 126 3 177
19 39 22 40 75 43 30 2 84 -2 120 -8 86 -14 381 -89 600 -151 96 -27 209 -59
250 -71 41 -11 191 -58 332 -104 142 -46 271 -84 288 -84 31 0 365 166 1264
627 209 107 391 199 404 204 14 5 23 11 21 13 -2 2 -157 45 -344 95 -187 50
-468 125 -625 167 -301 81 -702 184 -710 183 -3 0 -50 -18 -105 -38z m108
-889 c92 -27 167 -52 165 -57 -2 -5 -45 -30 -96 -54 l-93 -45 -182 53 c-100
29 -185 56 -190 60 -10 9 169 89 203 90 14 0 101 -21 193 -47z"/>
</g>
</svg>
